<?xml version="1.0" standalone="no"?><!DOCTYPE svg PUBLIC "-//W3C//DTD SVG 1.1//EN" "http://www.w3.org/Graphics/SVG/1.1/DTD/svg11.dtd"><svg t="1628143193198" class="icon" viewBox="0 0 1024 1024" version="1.1" xmlns="http://www.w3.org/2000/svg" p-id="26118" xmlns:xlink="http://www.w3.org/1999/xlink" width="200" height="200"><defs><style type="text/css"></style></defs><path d="M234.5 890.2a264 36.7 0 1 0 528 0 264 36.7 0 1 0-528 0Z" fill="#FEE5E5" p-id="26119"></path><path d="M349.3 889h273.6c424.3-240 105.5-599.2 50-639.7 18.5 40.5 22 108.9-15.4 142.2-63.3-239.8-219.6-289-219.6-289 18.5 123.7-67 259-149.5 360-2.9-49.3-6-83.4-31.9-130.6-5.8 89.6-74.3 162.7-92.9 252.4-25.1 121.8 18.8 210.8 185.7 304.7z m0 0" fill="#F20000" p-id="26120"></path></svg>