<?xml version="1.0" standalone="no"?><!DOCTYPE svg PUBLIC "-//W3C//DTD SVG 1.1//EN" "http://www.w3.org/Graphics/SVG/1.1/DTD/svg11.dtd"><svg t="1628145012320" class="icon" viewBox="0 0 1170 1024" version="1.1" xmlns="http://www.w3.org/2000/svg" p-id="3578" xmlns:xlink="http://www.w3.org/1999/xlink" width="228.515625" height="200"><defs><style type="text/css"></style></defs><path d="M421.302857 819.2h327.68l40.96 117.028571H380.342857z" fill="#A0CCF4" p-id="3579"></path><path d="M248.685714 936.228571h672.914286a43.885714 43.885714 0 0 1 0 87.771429h-672.914286a43.885714 43.885714 0 0 1 0-87.771429z" fill="#02C5D5" p-id="3580"></path><path d="M0 0m117.028571 0l936.228572 0q117.028571 0 117.028571 117.028571l0 585.142858q0 117.028571-117.028571 117.028571l-936.228572 0q-117.028571 0-117.028571-117.028571l0-585.142858q0-117.028571 117.028571-117.028571Z" fill="#0B7DE6" p-id="3581"></path><path d="M0 643.657143h1170.285714v58.514286H0zM146.285714 58.514286a29.257143 29.257143 0 1 1 0 58.514285 29.257143 29.257143 0 0 1 0-58.514285zM263.314286 58.514286a29.257143 29.257143 0 1 1 0 58.514285 29.257143 29.257143 0 0 1 0-58.514285zM380.342857 58.514286a29.257143 29.257143 0 1 1 0 58.514285 29.257143 29.257143 0 0 1 0-58.514285z" fill="#FDFEFF" p-id="3582"></path></svg>